<?xml version="1.0" encoding="UTF-8" standalone="no"?>
<!DOCTYPE svg PUBLIC "-//W3C//DTD SVG 1.1//EN" "http://www.w3.org/Graphics/SVG/1.1/DTD/svg11.dtd">
<!-- Created with Vectornator (http://vectornator.io/) -->
<svg height="100%" stroke-miterlimit="10" style="fill-rule:nonzero;clip-rule:evenodd;stroke-linecap:round;stroke-linejoin:round;" version="1.1" viewBox="0 0 322.774 56.9015" width="100%" xml:space="preserve" xmlns="http://www.w3.org/2000/svg" xmlns:xlink="http://www.w3.org/1999/xlink">
<defs>
<clipPath id="TextBounds">
<rect height="32.2617" width="286.806" x="38.3092" y="12.5"/>
</clipPath>
<clipPath id="TextBounds_2">
<rect height="1" width="0" x="-0.0868331" y="-8.18514"/>
</clipPath>
<clipPath id="TextBounds_3">
<rect height="34" width="41.7316" x="8.62119" y="11.0792"/>
</clipPath>
</defs>
<clipPath id="ArtboardFrame">
<rect height="56.9015" width="322.774" x="0" y="0"/>
</clipPath>
<g clip-path="url(#ArtboardFrame)" id="Layer-1">
<g fill="#ff9500" opacity="1" stroke="none">
<path clip-path="url(#TextBounds)" d="M65.6049 36.209C66.5123 36.209 67.258 36.1146 67.842 35.926C68.8842 35.5756 69.7377 34.9018 70.4026 33.9045C70.9326 33.1049 71.3145 32.0807 71.5481 30.8318C71.6828 30.0861 71.7502 29.3943 71.7502 28.7564C71.7502 26.3037 71.2628 24.399 70.288 23.0424C69.3132 21.6857 67.7432 21.0074 65.5779 21.0074L60.8207 21.0074L60.8207 36.209L65.6049 36.209ZM58.1254 18.7029L66.144 18.7029C68.8662 18.7029 70.9776 19.6687 72.4779 21.6004C73.8166 23.3434 74.486 25.576 74.486 28.2982C74.486 30.4006 74.0906 32.3008 73.3 33.9988C71.9074 36.9996 69.5131 38.5 66.117 38.5L58.1254 38.5L58.1254 18.7029Z"/>
<path clip-path="url(#TextBounds)" d="M83.3401 36.9367C84.9483 36.9367 86.0511 36.328 86.6485 35.1106C87.246 33.8933 87.5447 32.5389 87.5447 31.0475C87.5447 29.6998 87.3291 28.6037 86.8979 27.7592C86.2151 26.4295 85.0381 25.7646 83.367 25.7646C81.8846 25.7646 80.8065 26.3307 80.1326 27.4627C79.4588 28.5947 79.1219 29.9604 79.1219 31.5596C79.1219 33.0959 79.4588 34.3762 80.1326 35.4004C80.8065 36.4246 81.8756 36.9367 83.3401 36.9367ZM83.4344 23.6488C85.2942 23.6488 86.8664 24.2687 88.1512 25.5086C89.436 26.7484 90.0783 28.5723 90.0783 30.9801C90.0783 33.307 89.5123 35.2297 88.3803 36.748C87.2483 38.2664 85.4918 39.0256 83.111 39.0256C81.1254 39.0256 79.5486 38.354 78.3807 37.0108C77.2127 35.6677 76.6287 33.8641 76.6287 31.6C76.6287 29.1742 77.2442 27.2426 78.475 25.8051C79.7059 24.3676 81.359 23.6488 83.4344 23.6488Z"/>
<path clip-path="url(#TextBounds)" d="M94.0809 24.0666L96.857 35.4408L99.6736 24.0666L102.396 24.0666L105.226 35.3734L108.177 24.0666L110.603 24.0666L106.412 38.5L103.892 38.5L100.954 27.3279L98.1104 38.5L95.5902 38.5L91.426 24.0666L94.0809 24.0666Z"/>
<path clip-path="url(#TextBounds)" d="M112.894 24.0666L115.199 24.0666L115.199 26.115C115.881 25.2705 116.605 24.6641 117.368 24.2957C118.132 23.9273 118.981 23.7432 119.915 23.7432C121.964 23.7432 123.347 24.4574 124.066 25.8859C124.462 26.6676 124.659 27.7861 124.659 29.2416L124.659 38.5L122.193 38.5L122.193 29.4033C122.193 28.5229 122.063 27.8131 121.802 27.274C121.371 26.3756 120.589 25.9264 119.457 25.9264C118.882 25.9264 118.411 25.9848 118.042 26.1016C117.377 26.2992 116.793 26.6945 116.29 27.2875C115.886 27.7637 115.623 28.2556 115.502 28.7632C115.381 29.2708 115.32 29.9963 115.32 30.9396L115.32 38.5L112.894 38.5L112.894 24.0666Z"/>
<path clip-path="url(#TextBounds)" d="M128.311 18.7029L130.737 18.7029L130.737 38.5L128.311 38.5L128.311 18.7029Z"/>
<path clip-path="url(#TextBounds)" d="M140.103 36.9367C141.712 36.9367 142.814 36.328 143.412 35.1106C144.009 33.8933 144.308 32.5389 144.308 31.0475C144.308 29.6998 144.092 28.6037 143.661 27.7592C142.978 26.4295 141.801 25.7646 140.13 25.7646C138.648 25.7646 137.57 26.3307 136.896 27.4627C136.222 28.5947 135.885 29.9604 135.885 31.5596C135.885 33.0959 136.222 34.3762 136.896 35.4004C137.57 36.4246 138.639 36.9367 140.103 36.9367ZM140.198 23.6488C142.057 23.6488 143.63 24.2687 144.914 25.5086C146.199 26.7484 146.842 28.5723 146.842 30.9801C146.842 33.307 146.276 35.2297 145.144 36.748C144.012 38.2664 142.255 39.0256 139.874 39.0256C137.889 39.0256 136.312 38.354 135.144 37.0108C133.976 35.6677 133.392 33.8641 133.392 31.6C133.392 29.1742 134.007 27.2426 135.238 25.8051C136.469 24.3676 138.122 23.6488 140.198 23.6488Z"/>
<path clip-path="url(#TextBounds)" d="M151.585 34.6592C151.585 35.36 151.841 35.9125 152.354 36.3168C152.866 36.7211 153.472 36.9232 154.173 36.9232C155.026 36.9232 155.853 36.7256 156.653 36.3303C158 35.6744 158.674 34.6008 158.674 33.1094L158.674 31.1553C158.378 31.3439 157.996 31.5012 157.529 31.627C157.061 31.7527 156.603 31.8426 156.154 31.8965L154.685 32.0852C153.805 32.202 153.144 32.3861 152.704 32.6377C151.958 33.06 151.585 33.7338 151.585 34.6592ZM157.461 29.7537C158.018 29.6818 158.391 29.4482 158.58 29.0529C158.688 28.8373 158.741 28.5273 158.741 28.123C158.741 27.2965 158.447 26.6968 157.859 26.3239C157.27 25.9511 156.428 25.7646 155.332 25.7646C154.065 25.7646 153.167 26.1061 152.637 26.7889C152.34 27.1662 152.147 27.7277 152.057 28.4734L149.793 28.4734C149.838 26.6945 150.415 25.4569 151.525 24.7606C152.634 24.0644 153.921 23.7162 155.386 23.7162C157.084 23.7162 158.463 24.0396 159.523 24.6865C160.574 25.3334 161.1 26.3396 161.1 27.7053L161.1 36.0203C161.1 36.2719 161.151 36.474 161.255 36.6268C161.358 36.7795 161.576 36.8559 161.908 36.8559C162.016 36.8559 162.138 36.8491 162.272 36.8356C162.407 36.8222 162.551 36.802 162.704 36.775L162.704 38.5674C162.326 38.6752 162.039 38.7426 161.841 38.7695C161.643 38.7965 161.374 38.81 161.032 38.81C160.197 38.81 159.59 38.5135 159.213 37.9205C159.015 37.6061 158.876 37.1613 158.795 36.5863C158.301 37.2332 157.591 37.7947 156.666 38.2709C155.741 38.7471 154.721 38.9852 153.607 38.9852C152.268 38.9852 151.174 38.5786 150.325 37.7655C149.476 36.9524 149.052 35.935 149.052 34.7131C149.052 33.3744 149.47 32.3367 150.305 31.6C151.141 30.8633 152.237 30.4096 153.593 30.2389L157.461 29.7537Z"/>
<path clip-path="url(#TextBounds)" d="M166.612 31.4518C166.612 32.9971 166.94 34.2908 167.596 35.333C168.251 36.3752 169.303 36.8963 170.749 36.8963C171.872 36.8963 172.795 36.4134 173.518 35.4476C174.242 34.4817 174.603 33.0959 174.603 31.29C174.603 29.4662 174.23 28.1163 173.485 27.2403C172.739 26.3644 171.818 25.9264 170.722 25.9264C169.5 25.9264 168.51 26.3936 167.751 27.3279C166.991 28.2623 166.612 29.6369 166.612 31.4518ZM170.264 23.8105C171.369 23.8105 172.294 24.0441 173.04 24.5113C173.471 24.7809 173.961 25.2525 174.509 25.9264L174.509 18.6355L176.84 18.6355L176.84 38.5L174.657 38.5L174.657 36.492C174.091 37.3814 173.422 38.0238 172.649 38.4191C171.877 38.8145 170.992 39.0121 169.994 39.0121C168.386 39.0121 166.994 38.336 165.817 36.9839C164.64 35.6317 164.051 33.8326 164.051 31.5865C164.051 29.4842 164.588 27.6626 165.662 26.1218C166.735 24.581 168.269 23.8105 170.264 23.8105Z"/>
<path clip-path="url(#TextBounds)" d="M188.673 18.7029L203.106 18.7029L203.106 21.1287L191.287 21.1287L191.287 27.1393L202.217 27.1393L202.217 29.4303L191.287 29.4303L191.287 36.1416L203.308 36.1416L203.308 38.5L188.673 38.5L188.673 18.7029Z"/>
<path clip-path="url(#TextBounds)" d="M205.128 24.0666L208.268 24.0666L211.583 29.1473L214.939 24.0666L217.89 24.134L213.025 31.1014L218.106 38.5L215.006 38.5L211.421 33.0824L207.944 38.5L204.872 38.5L209.952 31.1014L205.128 24.0666Z"/>
<path clip-path="url(#TextBounds)" d="M220.788 20.0371L223.24 20.0371L223.24 24.0666L225.545 24.0666L225.545 26.0477L223.24 26.0477L223.24 35.4678C223.24 35.9709 223.411 36.3078 223.752 36.4785C223.941 36.5773 224.255 36.6268 224.696 36.6268C224.813 36.6268 224.938 36.6245 225.073 36.62C225.208 36.6155 225.365 36.6043 225.545 36.5863L225.545 38.5C225.266 38.5809 224.976 38.6393 224.676 38.6752C224.375 38.7111 224.049 38.7291 223.698 38.7291C222.566 38.7291 221.798 38.4394 221.394 37.8599C220.99 37.2804 220.788 36.5279 220.788 35.6025L220.788 26.0477L218.833 26.0477L218.833 24.0666L220.788 24.0666L220.788 20.0371Z"/>
<path clip-path="url(#TextBounds)" d="M233.981 23.7432C235.005 23.7432 235.998 23.9835 236.959 24.4642C237.921 24.9448 238.653 25.567 239.156 26.3307C239.641 27.0584 239.965 27.9074 240.126 28.8777C240.27 29.5426 240.342 30.6027 240.342 32.0582L229.763 32.0582C229.808 33.5227 230.154 34.6974 230.801 35.5823C231.447 36.4673 232.449 36.9098 233.806 36.9098C235.073 36.9098 236.083 36.492 236.838 35.6564C237.269 35.1713 237.575 34.6098 237.755 33.9719L240.14 33.9719C240.077 34.502 239.868 35.0927 239.513 35.744C239.158 36.3954 238.761 36.9277 238.321 37.341C237.584 38.0598 236.672 38.5449 235.585 38.7965C235.001 38.9402 234.34 39.0121 233.604 39.0121C231.807 39.0121 230.284 38.3585 229.035 37.0513C227.786 35.744 227.162 33.9135 227.162 31.5596C227.162 29.2416 227.791 27.3594 229.049 25.9129C230.306 24.4664 231.951 23.7432 233.981 23.7432ZM237.849 30.1311C237.75 29.0799 237.521 28.2398 237.162 27.6109C236.497 26.443 235.387 25.859 233.833 25.859C232.719 25.859 231.784 26.261 231.03 27.0651C230.275 27.8692 229.875 28.8912 229.83 30.1311L237.849 30.1311Z"/>
<path clip-path="url(#TextBounds)" d="M243.32 24.0666L245.625 24.0666L245.625 26.115C246.308 25.2705 247.031 24.6641 247.795 24.2957C248.558 23.9273 249.407 23.7432 250.342 23.7432C252.39 23.7432 253.774 24.4574 254.492 25.8859C254.888 26.6676 255.085 27.7861 255.085 29.2416L255.085 38.5L252.619 38.5L252.619 29.4033C252.619 28.5229 252.489 27.8131 252.228 27.274C251.797 26.3756 251.015 25.9264 249.883 25.9264C249.308 25.9264 248.837 25.9848 248.468 26.1016C247.804 26.2992 247.22 26.6945 246.716 27.2875C246.312 27.7637 246.049 28.2556 245.928 28.7632C245.807 29.2708 245.746 29.9963 245.746 30.9396L245.746 38.5L243.32 38.5L243.32 24.0666Z"/>
<path clip-path="url(#TextBounds)" d="M260.112 33.9719C260.184 34.7805 260.386 35.4004 260.719 35.8316C261.33 36.6133 262.39 37.0041 263.899 37.0041C264.797 37.0041 265.588 36.8087 266.271 36.4179C266.954 36.0271 267.295 35.4229 267.295 34.6053C267.295 33.9854 267.021 33.5137 266.473 33.1902C266.123 32.9926 265.431 32.7635 264.398 32.5029L262.471 32.0178C261.24 31.7123 260.332 31.3709 259.748 30.9936C258.706 30.3377 258.185 29.4303 258.185 28.2713C258.185 26.9057 258.677 25.8006 259.661 24.9561C260.644 24.1115 261.967 23.6893 263.63 23.6893C265.804 23.6893 267.371 24.3271 268.333 25.6029C268.935 26.4115 269.227 27.283 269.209 28.2174L266.918 28.2174C266.873 27.6693 266.68 27.1707 266.338 26.7215C265.781 26.0836 264.815 25.7646 263.441 25.7646C262.524 25.7646 261.83 25.9398 261.359 26.2902C260.887 26.6406 260.651 27.1033 260.651 27.6783C260.651 28.3072 260.961 28.8104 261.581 29.1877C261.94 29.4123 262.471 29.61 263.171 29.7807L264.775 30.1715C266.518 30.5938 267.686 31.0025 268.279 31.3979C269.222 32.0178 269.694 32.9926 269.694 34.3223C269.694 35.607 269.207 36.7166 268.232 37.651C267.257 38.5854 265.772 39.0525 263.778 39.0525C261.63 39.0525 260.11 38.5651 259.216 37.5903C258.322 36.6155 257.844 35.4094 257.781 33.9719L260.112 33.9719Z"/>
<path clip-path="url(#TextBounds)" d="M272.47 24.134L274.936 24.134L274.936 38.5L272.47 38.5L272.47 24.134ZM272.47 18.7029L274.936 18.7029L274.936 21.4521L272.47 21.4521L272.47 18.7029Z"/>
<path clip-path="url(#TextBounds)" d="M284.33 36.9367C285.938 36.9367 287.041 36.328 287.638 35.1106C288.235 33.8933 288.534 32.5389 288.534 31.0475C288.534 29.6998 288.319 28.6037 287.887 27.7592C287.205 26.4295 286.028 25.7646 284.356 25.7646C282.874 25.7646 281.796 26.3307 281.122 27.4627C280.448 28.5947 280.111 29.9604 280.111 31.5596C280.111 33.0959 280.448 34.3762 281.122 35.4004C281.796 36.4246 282.865 36.9367 284.33 36.9367ZM284.424 23.6488C286.284 23.6488 287.856 24.2687 289.141 25.5086C290.425 26.7484 291.068 28.5723 291.068 30.9801C291.068 33.307 290.502 35.2297 289.37 36.748C288.238 38.2664 286.481 39.0256 284.1 39.0256C282.115 39.0256 280.538 38.354 279.37 37.0108C278.202 35.6677 277.618 33.8641 277.618 31.6C277.618 29.1742 278.234 27.2426 279.464 25.8051C280.695 24.3676 282.348 23.6488 284.424 23.6488Z"/>
<path clip-path="url(#TextBounds)" d="M293.952 24.0666L296.256 24.0666L296.256 26.115C296.939 25.2705 297.662 24.6641 298.426 24.2957C299.19 23.9273 300.039 23.7432 300.973 23.7432C303.021 23.7432 304.405 24.4574 305.124 25.8859C305.519 26.6676 305.717 27.7861 305.717 29.2416L305.717 38.5L303.251 38.5L303.251 29.4033C303.251 28.5229 303.12 27.8131 302.86 27.274C302.429 26.3756 301.647 25.9264 300.515 25.9264C299.94 25.9264 299.468 25.9848 299.1 26.1016C298.435 26.2992 297.851 26.6945 297.348 27.2875C296.944 27.7637 296.681 28.2556 296.559 28.7632C296.438 29.2708 296.378 29.9963 296.378 30.9396L296.378 38.5L293.952 38.5L293.952 24.0666Z"/>
</g>
<g fill="#ff3b30" opacity="1" stroke="none"/>
<path d="M8.27 2.05L313.914 2.05C317.648 2.05 320.674 5.07656 320.674 8.81L320.674 47.64C320.674 51.3734 317.648 54.4 313.914 54.4L8.27 54.4C4.53656 54.4 1.51 51.3734 1.51 47.64L1.51 8.81C1.51 5.07656 4.53656 2.05 8.27 2.05Z" fill="none" opacity="1" stroke="#ff9500" stroke-linecap="butt" stroke-linejoin="round" stroke-width="1.99352"/>
<path clip-path="url(#TextBounds_3)" d="M18.4093 33.3462L40.5782 33.3462L42.3841 25.9745C42.4649 25.9745 42.5323 25.988 42.6132 25.988C44.2573 25.988 45.605 24.6404 45.605 22.9962C45.605 21.3521 44.2708 20.0179 42.6132 20.0179C40.969 20.0179 39.6349 21.3656 39.6349 22.9962C39.6349 23.5353 39.7831 24.0339 40.0257 24.4652L36.2927 27.147C35.821 27.4704 35.4841 27.3626 35.2145 26.9853L30.8616 20.53C31.8185 20.0314 32.4653 19.0206 32.4653 17.8751C32.4653 16.2445 31.1312 14.8968 29.487 14.8968C27.8429 14.8968 26.5087 16.231 26.5087 17.8751C26.5087 19.0206 27.1556 20.0179 28.1124 20.5165L23.719 27.0392C23.463 27.3896 23.1665 27.4839 22.7353 27.174L18.9483 24.4652C19.1909 24.0339 19.3392 23.5353 19.3392 22.9962C19.3392 21.3656 17.9915 20.0179 16.3608 20.0179C14.7032 20.0179 13.369 21.3521 13.369 22.9962C13.369 24.6404 14.7167 25.988 16.3608 25.988C16.4417 25.988 16.5226 25.9745 16.5899 25.9745L18.4093 33.3462ZM18.8136 34.9769L19.1774 36.4997C19.6626 38.4538 20.6868 39.4376 22.7487 39.4376L36.2388 39.4376C38.2872 39.4376 39.3114 38.4808 39.7966 36.4997L40.1739 34.9769L18.8136 34.9769Z" fill="#ff9500" opacity="1" stroke="none"/>
</g>
</svg>
