<?xml version="1.0" encoding="UTF-8" standalone="no"?>
<!DOCTYPE svg PUBLIC "-//W3C//DTD SVG 1.1//EN" "http://www.w3.org/Graphics/SVG/1.1/DTD/svg11.dtd">
<!-- Created with Vectornator (http://vectornator.io/) -->
<svg height="100%" stroke-miterlimit="10" style="fill-rule:nonzero;clip-rule:evenodd;stroke-linecap:round;stroke-linejoin:round;" version="1.1" viewBox="0 0 224.421 56.9015" width="100%" xml:space="preserve" xmlns="http://www.w3.org/2000/svg" xmlns:xlink="http://www.w3.org/1999/xlink">
<defs>
<clipPath id="TextBounds">
<rect height="32.2617" width="186.748" x="38.3092" y="12.5"/>
</clipPath>
<clipPath id="TextBounds_2">
<rect height="34" width="42.7693" x="7.42632" y="11.4639"/>
</clipPath>
<clipPath id="TextBounds_3">
<rect height="1" width="0" x="-0.0868331" y="-8.18514"/>
</clipPath>
</defs>
<clipPath id="ArtboardFrame">
<rect height="56.9015" width="224.421" x="0" y="0"/>
</clipPath>
<g clip-path="url(#ArtboardFrame)" id="Layer-1">
<g opacity="1">
<g opacity="1">
<clipPath id="ClipPath">
<path d="M324.538-30.0972L356.631-30.0972L356.631-30.0972L356.631-20.106L356.631-20.106L324.538-20.106L324.538-20.106L324.538-30.0972L324.538-30.0972Z"/>
</clipPath>
<g clip-path="url(#ClipPath)">
<path d="M333.149-5.26956L333.149-22.5846L326.681-22.5846L326.681-24.9014L342.242-24.9014L342.242-22.5846L335.747-22.5846L335.747-5.26956L333.149-5.26956Z" fill="#2cd45c" fill-rule="nonzero" opacity="1" stroke="none"/>
</g>
</g>
<g opacity="1">
<clipPath id="ClipPath_2">
<path d="M324.538-30.0972L356.631-30.0972L356.631-30.0972L356.631-20.106L356.631-20.106L324.538-20.106L324.538-20.106L324.538-30.0972L324.538-30.0972Z"/>
</clipPath>
<g clip-path="url(#ClipPath_2)">
<path d="M351.295-9.84942L353.785-9.54142C353.393-8.08622 352.665-6.95688 351.603-6.15339C350.54-5.34991 349.183-4.94817 347.532-4.94817C345.451-4.94817 343.802-5.58872 342.583-6.86983C341.365-8.15094 340.756-9.94762 340.756-12.2599C340.756-14.6525 341.372-16.5094 342.604-17.8307C343.836-19.152 345.434-19.8126 347.398-19.8126C349.299-19.8126 350.853-19.1654 352.058-17.8709C353.263-16.5764 353.866-14.7551 353.866-12.4072C353.866-12.2643 353.861-12.0501 353.852-11.7644L343.246-11.7644C343.336-10.2021 343.778-9.00576 344.572-8.1755C345.367-7.34523 346.358-6.9301 347.545-6.9301C348.429-6.9301 349.183-7.16221 349.808-7.62645C350.433-8.09068 350.929-8.83167 351.295-9.84942ZM343.38-13.7463L351.321-13.7463C351.214-14.9426 350.911-15.8398 350.411-16.438C349.643-17.3665 348.648-17.8307 347.424-17.8307C346.317-17.8307 345.387-17.4602 344.632-16.7192C343.878-15.9782 343.461-14.9873 343.38-13.7463Z" fill="#2cd45c" fill-rule="nonzero" opacity="1" stroke="none"/>
</g>
</g>
<g opacity="1">
<clipPath id="ClipPath_3">
<path d="M324.538-30.0972L356.631-30.0972L356.631-30.0972L356.631-20.106L356.631-20.106L324.538-20.106L324.538-20.106L324.538-30.0972L324.538-30.0972Z"/>
</clipPath>
<g clip-path="url(#ClipPath_3)">
<path d="M326.239 27.6995L331.435 20.3075L326.628 13.4778L329.641 13.4778L331.823 16.8123C332.234 17.4462 332.564 17.9774 332.814 18.4059C333.207 17.8167 333.569 17.2944 333.899 16.8391L336.296 13.4778L339.175 13.4778L334.261 20.1735L339.55 27.6995L336.591 27.6995L333.672 23.2804L332.895 22.0885L329.159 27.6995L326.239 27.6995Z" fill="#2cd45c" fill-rule="nonzero" opacity="1" stroke="none"/>
</g>
</g>
<g opacity="1">
<clipPath id="ClipPath_4">
<path d="M324.538-30.0972L356.631-30.0972L356.631-30.0972L356.631-20.106L356.631-20.106L324.538-20.106L324.538-20.106L324.538-30.0972L324.538-30.0972Z"/>
</clipPath>
<g clip-path="url(#ClipPath_4)">
<path d="M346.822 25.5435L347.17 27.6727C346.492 27.8156 345.884 27.887 345.349 27.887C344.474 27.887 343.795 27.7486 343.313 27.4719C342.831 27.1951 342.492 26.8313 342.296 26.3805C342.099 25.9296 342.001 24.9811 342.001 23.5348L342.001 15.3526L340.233 15.3526L340.233 13.4778L342.001 13.4778L342.001 9.95591L344.398 8.50964L344.398 13.4778L346.822 13.4778L346.822 15.3526L344.398 15.3526L344.398 23.6687C344.398 24.3561 344.44 24.798 344.525 24.9944C344.61 25.1909 344.748 25.3471 344.94 25.4631C345.132 25.5792 345.407 25.6372 345.764 25.6372C346.032 25.6372 346.384 25.606 346.822 25.5435Z" fill="#2cd45c" fill-rule="nonzero" opacity="1" stroke="none"/>
</g>
</g>
</g>
<g fill="#ff3b30" opacity="1" stroke="none">
<path clip-path="url(#TextBounds)" d="M58.1212 18.7029L63.8084 35.5621L69.4281 18.7029L72.4334 18.7029L65.2099 38.5L62.3664 38.5L55.1564 18.7029L58.1212 18.7029Z"/>
<path clip-path="url(#TextBounds)" d="M74.1584 24.134L76.6246 24.134L76.6246 38.5L74.1584 38.5L74.1584 24.134ZM74.1584 18.7029L76.6246 18.7029L76.6246 21.4521L74.1584 21.4521L74.1584 18.7029Z"/>
<path clip-path="url(#TextBounds)" d="M86.3007 23.7432C87.325 23.7432 88.3177 23.9835 89.2791 24.4642C90.2404 24.9448 90.9726 25.567 91.4757 26.3307C91.9609 27.0584 92.2843 27.9074 92.446 28.8777C92.5898 29.5426 92.6617 30.6027 92.6617 32.0582L82.0826 32.0582C82.1275 33.5227 82.4734 34.6974 83.1203 35.5823C83.7671 36.4673 84.7689 36.9098 86.1255 36.9098C87.3923 36.9098 88.4031 36.492 89.1578 35.6564C89.589 35.1713 89.8945 34.6098 90.0742 33.9719L92.4595 33.9719C92.3966 34.502 92.1877 35.0927 91.8329 35.744C91.478 36.3954 91.0804 36.9277 90.6402 37.341C89.9035 38.0598 88.9916 38.5449 87.9044 38.7965C87.3205 38.9402 86.6601 39.0121 85.9234 39.0121C84.1265 39.0121 82.6037 38.3585 81.3548 37.0513C80.106 35.744 79.4816 33.9135 79.4816 31.5596C79.4816 29.2416 80.1105 27.3594 81.3683 25.9129C82.6261 24.4664 84.2703 23.7432 86.3007 23.7432ZM90.1685 30.1311C90.0697 29.0799 89.8406 28.2398 89.4812 27.6109C88.8164 26.443 87.7068 25.859 86.1525 25.859C85.0384 25.859 84.1041 26.261 83.3494 27.0651C82.5947 27.8692 82.1949 28.8912 82.15 30.1311L90.1685 30.1311Z"/>
<path clip-path="url(#TextBounds)" d="M96.7585 24.0666L99.5347 35.4408L102.351 24.0666L105.074 24.0666L107.904 35.3734L110.855 24.0666L113.281 24.0666L109.09 38.5L106.569 38.5L103.632 27.3279L100.788 38.5L98.2679 38.5L94.1037 24.0666L96.7585 24.0666Z"/>
<path clip-path="url(#TextBounds)" d="M131.905 18.1639C134.412 18.1639 136.357 18.8242 137.741 20.1449C139.124 21.4656 139.893 22.966 140.045 24.6461L137.431 24.6461C137.134 23.3703 136.544 22.3596 135.659 21.6139C134.774 20.8682 133.532 20.4953 131.932 20.4953C129.983 20.4953 128.408 21.1804 127.209 22.5505C126.009 23.9206 125.41 26.0207 125.41 28.8508C125.41 31.1688 125.951 33.0487 127.034 34.4907C128.116 35.9327 129.731 36.6537 131.878 36.6537C133.855 36.6537 135.36 35.8945 136.393 34.3762C136.941 33.5766 137.35 32.5254 137.619 31.2227L140.234 31.2227C140 33.307 139.228 35.0545 137.916 36.465C136.344 38.1631 134.223 39.0121 131.555 39.0121C129.255 39.0121 127.323 38.3158 125.76 36.9232C123.703 35.0814 122.674 32.2379 122.674 28.3926C122.674 25.4727 123.447 23.0783 124.992 21.2096C126.663 19.1791 128.968 18.1639 131.905 18.1639Z"/>
<path clip-path="url(#TextBounds)" d="M143.172 18.6355L145.598 18.6355L145.598 26.0207C146.173 25.293 146.689 24.7809 147.147 24.4844C147.929 23.9723 148.904 23.7162 150.072 23.7162C152.165 23.7162 153.585 24.4484 154.33 25.9129C154.735 26.7125 154.937 27.8221 154.937 29.2416L154.937 38.5L152.444 38.5L152.444 29.4033C152.444 28.3432 152.309 27.566 152.039 27.0719C151.599 26.2812 150.773 25.8859 149.56 25.8859C148.553 25.8859 147.642 26.2318 146.824 26.9236C146.006 27.6154 145.598 28.9227 145.598 30.8453L145.598 38.5L143.172 38.5L143.172 18.6355Z"/>
<path clip-path="url(#TextBounds)" d="M164.532 23.7432C165.556 23.7432 166.549 23.9835 167.511 24.4642C168.472 24.9448 169.204 25.567 169.707 26.3307C170.192 27.0584 170.516 27.9074 170.677 28.8777C170.821 29.5426 170.893 30.6027 170.893 32.0582L160.314 32.0582C160.359 33.5227 160.705 34.6974 161.352 35.5823C161.999 36.4673 163 36.9098 164.357 36.9098C165.624 36.9098 166.635 36.492 167.389 35.6564C167.82 35.1713 168.126 34.6098 168.306 33.9719L170.691 33.9719C170.628 34.502 170.419 35.0927 170.064 35.744C169.709 36.3954 169.312 36.9277 168.872 37.341C168.135 38.0598 167.223 38.5449 166.136 38.7965C165.552 38.9402 164.892 39.0121 164.155 39.0121C162.358 39.0121 160.835 38.3585 159.586 37.0513C158.337 35.744 157.713 33.9135 157.713 31.5596C157.713 29.2416 158.342 27.3594 159.6 25.9129C160.858 24.4664 162.502 23.7432 164.532 23.7432ZM168.4 30.1311C168.301 29.0799 168.072 28.2398 167.713 27.6109C167.048 26.443 165.938 25.859 164.384 25.859C163.27 25.859 162.336 26.261 161.581 27.0651C160.826 27.8692 160.426 28.8912 160.381 30.1311L168.4 30.1311Z"/>
<path clip-path="url(#TextBounds)" d="M175.731 34.6592C175.731 35.36 175.987 35.9125 176.499 36.3168C177.011 36.7211 177.618 36.9232 178.319 36.9232C179.172 36.9232 179.999 36.7256 180.798 36.3303C182.146 35.6744 182.82 34.6008 182.82 33.1094L182.82 31.1553C182.523 31.3439 182.142 31.5012 181.674 31.627C181.207 31.7527 180.749 31.8426 180.3 31.8965L178.831 32.0852C177.95 32.202 177.29 32.3861 176.85 32.6377C176.104 33.06 175.731 33.7338 175.731 34.6592ZM181.607 29.7537C182.164 29.6818 182.537 29.4482 182.726 29.0529C182.833 28.8373 182.887 28.5273 182.887 28.123C182.887 27.2965 182.593 26.6968 182.005 26.3239C181.416 25.9511 180.574 25.7646 179.478 25.7646C178.211 25.7646 177.312 26.1061 176.782 26.7889C176.486 27.1662 176.293 27.7277 176.203 28.4734L173.939 28.4734C173.984 26.6945 174.561 25.4569 175.671 24.7606C176.78 24.0644 178.067 23.7162 179.532 23.7162C181.23 23.7162 182.609 24.0396 183.669 24.6865C184.72 25.3334 185.246 26.3396 185.246 27.7053L185.246 36.0203C185.246 36.2719 185.297 36.474 185.401 36.6268C185.504 36.7795 185.722 36.8559 186.054 36.8559C186.162 36.8559 186.283 36.8491 186.418 36.8356C186.553 36.8222 186.697 36.802 186.849 36.775L186.849 38.5674C186.472 38.6752 186.185 38.7426 185.987 38.7695C185.789 38.7965 185.52 38.81 185.178 38.81C184.343 38.81 183.736 38.5135 183.359 37.9205C183.161 37.6061 183.022 37.1613 182.941 36.5863C182.447 37.2332 181.737 37.7947 180.812 38.2709C179.886 38.7471 178.867 38.9852 177.753 38.9852C176.414 38.9852 175.32 38.5786 174.471 37.7655C173.622 36.9524 173.198 35.935 173.198 34.7131C173.198 33.3744 173.615 32.3367 174.451 31.6C175.286 30.8633 176.383 30.4096 177.739 30.2389L181.607 29.7537Z"/>
<path clip-path="url(#TextBounds)" d="M189.706 20.0371L192.159 20.0371L192.159 24.0666L194.464 24.0666L194.464 26.0477L192.159 26.0477L192.159 35.4678C192.159 35.9709 192.33 36.3078 192.671 36.4785C192.86 36.5773 193.174 36.6268 193.615 36.6268C193.731 36.6268 193.857 36.6245 193.992 36.62C194.127 36.6155 194.284 36.6043 194.464 36.5863L194.464 38.5C194.185 38.5809 193.895 38.6393 193.594 38.6752C193.293 38.7111 192.968 38.7291 192.617 38.7291C191.485 38.7291 190.717 38.4394 190.313 37.8599C189.909 37.2804 189.706 36.5279 189.706 35.6025L189.706 26.0477L187.752 26.0477L187.752 24.0666L189.706 24.0666L189.706 20.0371Z"/>
<path clip-path="url(#TextBounds)" d="M198.331 33.9719C198.403 34.7805 198.605 35.4004 198.938 35.8316C199.549 36.6133 200.609 37.0041 202.118 37.0041C203.017 37.0041 203.807 36.8087 204.49 36.4179C205.173 36.0271 205.514 35.4229 205.514 34.6053C205.514 33.9854 205.24 33.5137 204.692 33.1902C204.342 32.9926 203.65 32.7635 202.617 32.5029L200.69 32.0178C199.459 31.7123 198.552 31.3709 197.968 30.9936C196.925 30.3377 196.404 29.4303 196.404 28.2713C196.404 26.9057 196.896 25.8006 197.88 24.9561C198.864 24.1115 200.187 23.6893 201.849 23.6893C204.023 23.6893 205.591 24.3271 206.552 25.6029C207.154 26.4115 207.446 27.283 207.428 28.2174L205.137 28.2174C205.092 27.6693 204.899 27.1707 204.558 26.7215C204.001 26.0836 203.035 25.7646 201.66 25.7646C200.744 25.7646 200.05 25.9398 199.578 26.2902C199.106 26.6406 198.87 27.1033 198.87 27.6783C198.87 28.3072 199.18 28.8104 199.8 29.1877C200.16 29.4123 200.69 29.61 201.391 29.7807L202.994 30.1715C204.737 30.5938 205.905 31.0025 206.498 31.3979C207.442 32.0178 207.913 32.9926 207.913 34.3223C207.913 35.607 207.426 36.7166 206.451 37.651C205.476 38.5854 203.992 39.0525 201.997 39.0525C199.85 39.0525 198.329 38.5651 197.435 37.5903C196.541 36.6155 196.063 35.4094 196 33.9719L198.331 33.9719Z"/>
</g>
<path clip-path="url(#TextBounds_2)" d="M28.8177 39.081C38.9386 39.081 45.9734 30.8334 45.9734 28.2863C45.9734 25.7123 38.9117 17.4781 28.8177 17.4781C18.8316 17.4781 11.6486 25.7123 11.6486 28.2863C11.6486 30.8334 18.8046 39.081 28.8177 39.081ZM28.8177 35.3615C24.8556 35.3615 21.7291 32.1406 21.7021 28.2863C21.6886 24.3242 24.8556 21.1976 28.8177 21.1976C32.7394 21.1976 35.9199 24.3242 35.9199 28.2863C35.9199 32.1406 32.7394 35.3615 28.8177 35.3615ZM28.8177 30.7795C30.1923 30.7795 31.3378 29.6475 31.3378 28.2863C31.3378 26.8982 30.1923 25.7662 28.8177 25.7662C27.4296 25.7662 26.2841 26.8982 26.2841 28.2863C26.2841 29.6475 27.4296 30.7795 28.8177 30.7795Z" fill="#ff3b30" opacity="1" stroke="none"/>
<g fill="#ff3b30" opacity="1" stroke="none"/>
<path d="M8.27 2.05L215.6 2.05C219.333 2.05 222.36 5.07656 222.36 8.81L222.36 47.64C222.36 51.3734 219.333 54.4 215.6 54.4L8.27 54.4C4.53656 54.4 1.51 51.3734 1.51 47.64L1.51 8.81C1.51 5.07656 4.53656 2.05 8.27 2.05Z" fill="none" opacity="1" stroke="#ff3b30" stroke-linecap="butt" stroke-linejoin="round" stroke-width="1.99352"/>
</g>
</svg>
